<svg width="96" height="96" viewBox="0 0 96 96" fill="none" xmlns="http://www.w3.org/2000/svg">
<g clip-path="url(#clip0_532_14216)">
<path d="M37.5958 27.7895C37.5493 32.6588 38.7557 37.4536 41.0921 41.6843C43.4529 45.9253 46.8622 49.4437 50.9719 51.8798C55.2269 54.4663 60.0356 55.7595 65.398 55.7595C70.1785 55.7595 74.4043 54.9474 78.0757 53.3233C81.747 51.6992 85.39 48.9623 89.0045 45.1125C89.4552 44.6117 89.9531 44.1584 90.4907 43.7593C90.8975 43.5528 91.3496 43.4596 91.8021 43.489H94.0754C95.3578 43.489 95.999 44.692 95.999 47.098C95.999 56.1206 93.9881 64.3314 89.9662 71.7303C85.9443 79.1292 80.2616 85.0236 72.918 89.4135C65.5738 93.8045 57.1808 96 47.7389 96C38.7626 96 30.6606 94.0451 23.433 90.1352C16.3193 86.3364 10.3818 80.5531 6.29642 73.4434C2.09881 66.2256 0 57.8648 0 48.361C0 39.2182 2.09837 31.0074 6.29511 23.7288C10.4919 16.4501 16.5246 10.6759 24.3933 6.40608C32.2623 2.13536 41.3261 0 51.5848 0C58.929 0 65.4864 1.11279 71.257 3.33837C77.0276 5.56394 81.6032 8.75139 84.9837 12.9007C88.3069 16.8881 90.1095 21.9876 90.0549 27.2465C90.0549 33.8631 87.8108 39.3669 83.3227 43.7579C78.8345 48.149 73.0931 50.3449 66.0984 50.3458C59.5701 50.3458 54.0615 48.1503 49.5725 43.7593C45.0835 39.3683 42.8394 33.9846 42.8402 27.6081C42.8402 22.9164 44.414 19.0668 47.5614 16.0593C50.7089 13.0518 54.7308 11.5481 59.6271 11.5481C59.9592 11.0077 60.1405 10.3833 60.151 9.74344C60.151 8.05916 58.927 7.21702 56.4789 7.21702C51.3492 7.21702 46.9193 9.23209 43.1893 13.2622C39.4592 17.2924 37.5948 22.1348 37.5958 27.7895Z" fill="#222222"/>
</g>
<defs>
<clipPath id="clip0_532_14216">
<rect width="96" height="96" fill="white"/>
</clipPath>
</defs>
</svg>
